<svg width="35" height="35" viewBox="0 0 35 35" fill="none" xmlns="http://www.w3.org/2000/svg">
<g clip-path="url(#clip0_551_232)">
<path d="M5.99023 14.5839H29.7992V16.5259H5.99023V14.5839ZM20.8685 29.1677C20.8685 31.3161 20.0836 33.0579 17.8917 33.0579C15.6998 33.0579 14.9148 31.3161 14.9148 29.1677C14.9148 27.0193 15.6998 27.2256 17.8917 27.2256C20.0836 27.2256 20.8685 27.0253 20.8685 29.1677Z" fill="#292F33"/>
<path d="M17.8979 30.1387C11.3223 30.1387 7.97705 31.4435 7.97705 33.0579V35H27.8188V33.0579C27.8188 31.4496 24.4736 30.1387 17.8979 30.1387Z" fill="#66757F"/>
<path d="M17.8979 0C12.9646 0 8.96729 3.91451 8.96729 8.75152V15.5549H26.8225V8.75152C26.8225 3.92058 22.8251 0 17.8919 0L17.8979 0Z" fill="#99AAB5"/>
<path d="M15.4161 3.89018C16.2373 3.89018 16.9015 3.23472 16.9015 2.43361C16.9015 1.6325 16.2373 0.977051 15.4161 0.977051C14.5949 0.977051 13.9307 1.6325 13.9307 2.43361C13.9307 3.23472 14.5949 3.89018 15.4161 3.89018Z" fill="#292F33"/>
<path d="M20.3736 3.89018C21.1948 3.89018 21.859 3.23472 21.859 2.43361C21.859 1.6325 21.1948 0.977051 20.3736 0.977051C19.5524 0.977051 18.8882 1.6325 18.8882 2.43361C18.8882 3.23472 19.5524 3.89018 20.3736 3.89018Z" fill="#292F33"/>
<path d="M17.4024 7.78044C18.2236 7.78044 18.8878 7.12498 18.8878 6.32387C18.8878 5.52276 18.2236 4.86731 17.4024 4.86731C16.5812 4.86731 15.917 5.52276 15.917 6.32387C15.917 7.12498 16.5812 7.78044 17.4024 7.78044Z" fill="#292F33"/>
<path d="M22.3599 7.78044C23.1811 7.78044 23.8453 7.12498 23.8453 6.32387C23.8453 5.52276 23.1811 4.86731 22.3599 4.86731C21.5387 4.86731 20.8745 5.52276 20.8745 6.32387C20.8745 7.12498 21.5387 7.78044 22.3599 7.78044Z" fill="#292F33"/>
<path d="M12.439 7.78044C13.2602 7.78044 13.9244 7.12498 13.9244 6.32387C13.9244 5.52276 13.2602 4.86731 12.439 4.86731C11.6178 4.86731 10.9536 5.52276 10.9536 6.32387C10.9536 7.12498 11.6178 7.78044 12.439 7.78044Z" fill="#292F33"/>
<path d="M15.4161 11.6646C16.2373 11.6646 16.9015 11.0091 16.9015 10.208C16.9015 9.40692 16.2373 8.75146 15.4161 8.75146C14.5949 8.75146 13.9307 9.40692 13.9307 10.208C13.9307 11.0091 14.5949 11.6646 15.4161 11.6646Z" fill="#292F33"/>
<path d="M10.4586 11.6646C11.2798 11.6646 11.944 11.0091 11.944 10.208C11.944 9.40692 11.2798 8.75146 10.4586 8.75146C9.63735 8.75146 8.97314 9.40692 8.97314 10.208C8.97314 11.0091 9.63735 11.6646 10.4586 11.6646Z" fill="#292F33"/>
<path d="M20.3736 11.6646C21.1948 11.6646 21.859 11.0091 21.859 10.208C21.859 9.40692 21.1948 8.75146 20.3736 8.75146C19.5524 8.75146 18.8882 9.40692 18.8882 10.208C18.8882 11.0091 19.5524 11.6646 20.3736 11.6646Z" fill="#292F33"/>
<path d="M25.337 11.6646C26.1582 11.6646 26.8224 11.0091 26.8224 10.208C26.8224 9.40692 26.1582 8.75146 25.337 8.75146C24.5158 8.75146 23.8516 9.40692 23.8516 10.208C23.8516 11.0091 24.5158 11.6646 25.337 11.6646Z" fill="#292F33"/>
<path d="M17.4024 15.5548C18.2236 15.5548 18.8878 14.8994 18.8878 14.0983C18.8878 13.2972 18.2236 12.6417 17.4024 12.6417C16.5812 12.6417 15.917 13.2972 15.917 14.0983C15.917 14.8994 16.5812 15.5548 17.4024 15.5548Z" fill="#292F33"/>
<path d="M22.3599 15.5548C23.1811 15.5548 23.8453 14.8994 23.8453 14.0983C23.8453 13.2972 23.1811 12.6417 22.3599 12.6417C21.5387 12.6417 20.8745 13.2972 20.8745 14.0983C20.8745 14.8994 21.5387 15.5548 22.3599 15.5548Z" fill="#292F33"/>
<path d="M12.439 15.5548C13.2602 15.5548 13.9244 14.8994 13.9244 14.0983C13.9244 13.2972 13.2602 12.6417 12.439 12.6417C11.6178 12.6417 10.9536 13.2972 10.9536 14.0983C10.9536 14.8994 11.6178 15.5548 12.439 15.5548Z" fill="#292F33"/>
<path d="M8.96729 14.6445V16.5259C8.96729 21.3569 12.9646 25.2774 17.8979 25.2774C22.8312 25.2774 26.8285 21.3629 26.8285 16.5259V14.6445H8.96729Z" fill="#66757F"/>
<path d="M29.799 13.6128C29.2495 13.6128 28.8087 14.0498 28.8087 14.5838V16.5259C28.8087 22.4311 23.9238 27.2195 17.8976 27.2195C11.8714 27.2195 6.98641 22.4311 6.98641 16.5259V14.5838C6.98641 14.0498 6.53958 13.6128 5.99614 13.6128C5.45269 13.6128 5.00586 14.0498 5.00586 14.5838V16.5259C5.00586 23.5053 10.7785 29.1677 17.9036 29.1677C25.0288 29.1677 30.8014 23.5114 30.8014 16.5259V14.5838C30.8014 14.0498 30.3606 13.6128 29.8111 13.6128H29.799Z" fill="#66757F"/>
</g>
<defs>
<clipPath id="clip0_551_232">
<rect width="25.7895" height="35" fill="white" transform="translate(5)"/>
</clipPath>
</defs>
</svg>
