<svg width="35" height="35" viewBox="0 0 35 35" fill="none" xmlns="http://www.w3.org/2000/svg">
<g clip-path="url(#clip0_551_171)">
<g clip-path="url(#clip1_551_171)">
<path d="M2.83129 24.9342L6.193 28.215L5.28701 29.0979L1.92529 25.817L2.83129 24.9342Z" fill="#77B255"/>
<path d="M6.10365 28.1255L9.46536 31.4063L8.55937 32.2891L5.20361 29.0083L6.10365 28.1255Z" fill="#FFD983"/>
<path d="M6.0139 23.0134L9.37562 26.2942L8.46963 27.1771L5.10791 23.8963L6.0139 23.0134Z" fill="#FFAC33"/>
<path d="M8.68431 25.6142L12.046 28.895L11.14 29.7778L7.77832 26.497L8.67835 25.6142H8.68431ZM12.5109 16.6725L15.8727 19.9533L14.9667 20.8361L11.605 17.5553L12.5109 16.6725Z" fill="#EA596E"/>
<path d="M15.1814 19.2793L18.5431 22.5601L17.6371 23.4429L14.2754 20.1621L15.1814 19.2793Z" fill="#FFAC33"/>
<path d="M14.5319 13.5885L17.8936 16.8693L16.9936 17.7522L13.6318 14.4713L14.5319 13.5885Z" fill="#77B255"/>
<path d="M17.7683 16.75L21.13 20.0308L20.224 20.9137L16.8623 17.6328L17.7683 16.75Z" fill="#FFD983"/>
<path d="M17.1243 11.0593L20.486 14.3401L19.58 15.223L16.2183 11.9422L17.1243 11.0593Z" fill="#FFAC33"/>
<path d="M20.3611 14.2208L23.7228 17.5017L22.8168 18.3845L19.4551 15.1037L20.3551 14.2208H20.3611ZM23.7526 4.59314L27.1143 7.87395L26.2083 8.75679L22.8466 5.47598L23.7526 4.59314Z" fill="#EA596E"/>
<path d="M26.989 7.74866L30.3507 11.0295L29.4447 11.9123L26.083 8.63149L26.989 7.74866Z" fill="#FFAC33"/>
<path d="M26.3274 2.00427L29.6891 5.28509L28.7831 6.16792L25.4214 2.88711L26.3274 2.00427Z" fill="#77B255"/>
<path d="M29.5998 5.20154L32.9616 8.48235L32.0556 9.36519L28.6938 6.08437L29.5998 5.20154Z" fill="#FFD983"/>
<path d="M24.277 0.626296C21.8093 3.0362 21.7318 6.49597 21.9285 9.99749C22.4173 10.0214 22.912 10.0571 23.4008 10.087C23.7823 10.1108 24.1578 10.1347 24.5333 10.1586C24.3366 7.0209 24.3366 4.13975 26.1068 2.41583C26.8161 1.74177 27.0426 0.835075 26.542 0.345936C26.0174 -0.173029 25.034 -0.131274 24.271 0.626296H24.277Z" fill="#9266CC"/>
<path d="M12.7436 24.3615L12.5946 21.8204C12.5708 21.3969 12.535 20.9614 12.5231 20.5498C12.231 20.2695 10.1091 20.2158 9.92432 20.3947C9.93624 20.8123 9.972 21.2418 9.99584 21.6653C10.0256 22.1425 10.121 23.8366 10.1389 24.2064C10.1925 25.0773 10.2343 25.9304 10.2223 26.7416C10.4786 26.9862 12.5469 27.1592 12.8152 26.8967C12.8271 26.0616 12.7913 25.2145 12.7436 24.3615Z" fill="#3B88C3"/>
<path d="M12.8211 26.8967L10.2283 26.7416C10.2045 28.8532 9.85279 30.7024 8.57725 31.9491C8.07061 32.4442 8.07061 33.2436 8.57725 33.7387C8.82759 33.9832 9.16137 34.1085 9.49516 34.1085C9.82895 34.1085 10.1568 33.9832 10.4131 33.7387C12.7854 31.4242 12.8271 26.8847 12.8271 26.8967H12.8211Z" fill="#55ACEE"/>
<path d="M24.7002 12.6998C24.2115 12.6759 23.7168 12.6401 23.228 12.6103C22.8465 12.5864 22.471 12.5626 22.0955 12.5387C22.2922 15.6763 22.2922 18.5575 20.5219 20.2814C18.7576 22.0053 15.8072 22.0053 12.5945 21.8145C12.219 21.7906 10.4785 21.6832 9.99572 21.6534C6.4075 21.4565 2.84909 21.5341 0.381446 23.944C-0.125196 24.4391 -0.125196 25.2384 0.381446 25.7335C0.631787 25.9781 0.965574 26.1034 1.29936 26.1034C1.63315 26.1034 1.96098 25.9781 2.21728 25.7335C3.98754 24.0096 6.93202 24.0096 10.1447 24.1945C10.5202 24.2184 12.2607 24.3258 12.7495 24.3556C16.3377 24.5524 19.8842 24.4749 22.3578 22.065C24.8254 19.6551 24.9089 16.1953 24.7062 12.6938L24.7002 12.6998Z" fill="#9266CC"/>
<path d="M24.7004 12.6997C24.6706 12.2225 24.5573 10.5224 24.5335 10.1586C24.5096 9.72908 24.4858 9.30556 24.4679 8.888C24.1401 8.87011 22.4115 8.76274 21.8691 8.73291C21.8811 9.15047 21.8989 9.57399 21.9228 9.99751C21.9526 10.4747 22.0658 12.1748 22.0897 12.5387C22.1433 13.4096 22.1791 14.2626 22.1672 15.0738C22.495 15.0917 24.2176 15.1991 24.76 15.2289C24.7719 14.3938 24.7481 13.5468 24.6944 12.6937L24.7004 12.6997Z" fill="#744EAA"/>
<path d="M34.7138 8.2855C34.3026 7.86794 33.3548 7.71284 32.4727 8.62551C30.7024 10.3494 27.7579 10.3494 24.5393 10.1585C24.1638 10.1347 22.4233 10.0213 21.9345 9.99748C18.3523 9.80063 14.7998 9.87818 12.3322 12.2881C10.1626 14.4057 9.8407 17.3346 9.93011 20.3887C10.4725 20.4185 12.2011 20.5259 12.5289 20.5438C12.4335 17.9132 12.6421 15.5629 14.168 14.0717C15.9383 12.3477 18.8887 12.3477 22.1014 12.5386C22.4769 12.5625 24.2174 12.6699 24.7062 12.6997C28.2884 12.8965 31.8409 12.819 34.3085 10.4091C35.1787 9.57993 35.1311 8.70305 34.7198 8.2855H34.7138Z" fill="#55ACEE"/>
</g>
</g>
<defs>
<clipPath id="clip0_551_171">
<rect width="35" height="35" fill="white"/>
</clipPath>
<clipPath id="clip1_551_171">
<rect width="35" height="34.1026" fill="white"/>
</clipPath>
</defs>
</svg>
