<svg width="35" height="35" viewBox="0 0 35 35" fill="none" xmlns="http://www.w3.org/2000/svg">
<g clip-path="url(#clip0_551_224)">
<path d="M17.5 2C7.83564 2 0 7.94195 0 15.2747C0 19.4175 2.50338 23.1164 6.4212 25.5429C5.91224 27.7327 4.72269 30.9877 1.94707 34.2368C7.54565 33.3254 11.1261 30.674 13.3395 28.1529C14.677 28.4073 16.0678 28.5494 17.5059 28.5494C27.1703 28.5494 35.0059 22.6074 35.0059 15.2747C35.0059 7.94195 27.1644 2 17.5 2Z" fill="#BDDDF4"/>
<path d="M17.4998 17.1686C18.5769 17.1686 19.4469 16.3163 19.4469 15.2747C19.4469 14.2331 18.5769 13.3809 17.4998 13.3809C16.4227 13.3809 15.5527 14.2331 15.5527 15.2747C15.5527 16.3163 16.4227 17.1686 17.4998 17.1686Z" fill="#2A6797"/>
<path d="M25.2767 17.1686C26.3538 17.1686 27.2237 16.3163 27.2237 15.2747C27.2237 14.2331 26.3538 13.3809 25.2767 13.3809C24.1996 13.3809 23.3296 14.2331 23.3296 15.2747C23.3296 16.3163 24.1996 17.1686 25.2767 17.1686Z" fill="#2A6797"/>
<path d="M9.72344 17.1686C10.8005 17.1686 11.6705 16.3163 11.6705 15.2747C11.6705 14.2331 10.8005 13.3809 9.72344 13.3809C8.64634 13.3809 7.77637 14.2331 7.77637 15.2747C7.77637 16.3163 8.64634 17.1686 9.72344 17.1686Z" fill="#2A6797"/>
</g>
<defs>
<clipPath id="clip0_551_224">
<rect width="35" height="32.2368" fill="white" transform="translate(0 2)"/>
</clipPath>
</defs>
</svg>
