<svg width="35" height="35" viewBox="0 0 35 35" fill="none" xmlns="http://www.w3.org/2000/svg">
<g clip-path="url(#clip0_551_170)">
<path d="M30.877 1.99268H4.11632C2.41206 1.99268 1.02734 3.32653 1.02734 4.97679V30.8164C1.02734 32.4604 2.41206 33.8005 4.11632 33.8005H30.877C32.5812 33.8005 33.9659 32.4666 33.9659 30.8164V4.97679C33.9659 3.33274 32.5812 1.99268 30.877 1.99268Z" fill="#CCD6DD"/>
<path d="M30.8772 1H4.11654C1.84211 1 0 2.78054 0 4.97675V30.8163C0 33.0126 1.84211 34.7931 4.11654 34.7931H30.8772C33.1516 34.7931 34.9937 33.0126 34.9937 30.8163V4.97675C34.9937 2.78054 33.1516 1 30.8772 1ZM30.8772 2.98527C32.0113 2.98527 32.9386 3.87865 32.9386 4.97055V8.9473H26.7607V2.98527H30.8772ZM26.7607 18.8861H32.9386V24.8481H26.7607V18.8861ZM26.7607 16.9008V10.9388H32.9386V16.9008H26.7607ZM24.6992 2.98527V8.9473H18.5213V2.98527H24.6992ZM18.5213 10.9388H24.6992V16.9008H18.5213V10.9388ZM18.5213 18.8923H24.6992V24.8543H18.5213V18.8923ZM16.4599 2.99148V8.95351H10.282V2.98527H16.4599V2.99148ZM10.282 10.945H16.4599V16.907H10.282V10.945ZM10.282 18.8985H16.4599V24.8605H10.282V18.8985ZM2.0614 4.97675C2.0614 3.87865 2.98246 2.99148 4.12281 2.99148H8.23935V8.95351H2.0614V4.97675ZM2.0614 10.9388H8.23935V16.9008H2.0614V10.9388ZM2.0614 18.8923H8.23935V24.8543H2.0614V18.8923ZM4.12281 32.8078C2.98872 32.8078 2.0614 31.9145 2.0614 30.8226V26.8458H8.23935V32.8078H4.12281ZM10.3008 32.8078V26.8458H16.4787V32.8078H10.3008ZM18.5338 32.8078V26.8458H24.7118V32.8078H18.5338ZM30.8835 32.8078H26.7669V26.8458H32.9449V30.8226C32.9449 31.9207 32.0238 32.8078 30.8835 32.8078Z" fill="#E1E8ED"/>
<path d="M12.3498 32.8016H6.17188V15.9081C6.17188 14.81 7.09293 13.9229 8.23328 13.9229H10.2947C11.4288 13.9229 12.3561 14.8162 12.3561 15.9081V32.8016H12.3498Z" fill="#5C913B"/>
<path d="M28.822 32.8017H22.644V8.95354C22.644 7.85543 23.5651 6.96826 24.7054 6.96826H26.7669C27.9009 6.96826 28.8283 7.86164 28.8283 8.95354V32.8079L28.822 32.8017Z" fill="#3B94D9"/>
<path d="M20.5891 32.8016H14.4111V22.8628C14.4111 21.7647 15.3322 20.8776 16.4725 20.8776H18.5339C19.668 20.8776 20.5953 21.7709 20.5953 22.8628V32.8016H20.5891Z" fill="#DD2E44"/>
</g>
<defs>
<clipPath id="clip0_551_170">
<rect width="35" height="33.7931" fill="white" transform="translate(0 1)"/>
</clipPath>
</defs>
</svg>
