<svg width="35" height="35" viewBox="0 0 35 35" fill="none" xmlns="http://www.w3.org/2000/svg">
<g clip-path="url(#clip0_551_198)">
<path d="M28.7907 10.9606C28.7907 17.4279 23.6133 18.4306 23.6133 24.453C23.6133 27.5613 20.3782 27.8245 17.9125 27.8245C15.7873 27.8245 11.0891 27.0412 11.0891 24.453C11.0891 18.4306 6 17.4279 6 10.9606C6 4.90689 11.4738 0 17.4836 0C23.4935 0 28.7907 4.90689 28.7907 10.9606Z" fill="#FFD983"/>
<path d="M21.7152 32.487C21.7152 33.3204 19.4008 34.9937 17.3954 34.9937C15.3901 34.9937 13.0757 33.3142 13.0757 32.487C13.0757 31.6597 15.3901 31.9856 17.3954 31.9856C19.4008 31.9856 21.7152 31.6535 21.7152 32.487Z" fill="#CCD6DD"/>
<path d="M22.2699 10.196C21.8663 9.8012 21.2104 9.8012 20.8069 10.196L17.3952 13.5049L13.9835 10.196C13.5799 9.8012 12.9241 9.8012 12.5205 10.196C12.1169 10.5908 12.1169 11.2238 12.5205 11.6186L16.361 15.341V25.9695C16.361 26.5273 16.8276 26.9722 17.3952 26.9722C17.9627 26.9722 18.4294 26.521 18.4294 25.9695V15.341L22.2699 11.6186C22.6735 11.2238 22.6735 10.5908 22.2699 10.196Z" fill="#FFCC4D"/>
<path d="M23.6131 30.983C23.6131 32.0922 22.6861 32.9883 21.5384 32.9883H13.252C12.1106 32.9883 11.1772 32.0859 11.1772 30.983V24.9606H23.6068V30.983H23.6131Z" fill="#99AAB5"/>
<path d="M11.1775 31.9856C10.6793 31.9856 10.2379 31.6347 10.1559 31.1459C10.0613 30.6007 10.446 30.0805 11.0072 29.9928L23.4368 27.9874C23.9981 27.8872 24.5341 28.2632 24.6287 28.8147C24.7233 29.3599 24.3386 29.88 23.7774 29.9677L11.3478 31.9731C11.291 31.9856 11.2343 31.9856 11.1775 31.9856ZM11.1775 27.9686C10.6793 27.9686 10.2379 27.6177 10.1559 27.1289C10.0613 26.5837 10.446 26.0635 11.0072 25.9758L23.4368 23.9704C23.9981 23.8702 24.5341 24.2462 24.6287 24.7976C24.7233 25.3429 24.3386 25.863 23.7774 25.9507L11.3478 27.9561C11.291 27.9686 11.2343 27.9686 11.1775 27.9686Z" fill="#CCD6DD"/>
</g>
<defs>
<clipPath id="clip0_551_198">
<rect width="22.7907" height="35" fill="white" transform="translate(6)"/>
</clipPath>
</defs>
</svg>
