<svg width="34" height="35" viewBox="0 0 34 35" fill="none" xmlns="http://www.w3.org/2000/svg">
<g clip-path="url(#clip0_551_218)">
<path d="M29.5056 31.1098C29.5056 33.2582 27.7453 35 25.5719 35H3.93368C1.76028 35 0 33.2582 0 31.1098V3.89024C0 1.74181 1.76028 0 3.93368 0H25.5719C27.7453 0 29.5056 1.74181 29.5056 3.89024V31.1158V31.1098Z" fill="#CCD6DD"/>
<path d="M25.5718 23.3354C25.5718 23.8694 25.1347 24.3064 24.5899 24.3064H4.91552C4.37067 24.3064 3.93359 23.8694 3.93359 23.3354C3.93359 22.8013 4.37666 22.3643 4.91552 22.3643H24.5899C25.1347 22.3643 25.5718 22.8013 25.5718 23.3354ZM9.83111 27.2256C9.83111 27.7597 9.38805 28.1966 8.84919 28.1966H4.91552C4.37067 28.1966 3.93359 27.7597 3.93359 27.2256C3.93359 26.6915 4.37666 26.2546 4.91552 26.2546H8.84919C9.39404 26.2546 9.83111 26.6915 9.83111 27.2256ZM25.5718 7.78049C25.5718 8.31456 25.1347 8.75153 24.5899 8.75153H4.91552C4.37067 8.75153 3.93359 8.31456 3.93359 7.78049C3.93359 7.24642 4.37666 6.80945 4.91552 6.80945H24.5899C25.1347 6.80945 25.5718 7.24642 25.5718 7.78049ZM25.5718 11.6707C25.5718 12.2048 25.1347 12.6418 24.5899 12.6418H4.91552C4.37067 12.6418 3.93359 12.2048 3.93359 11.6707C3.93359 11.1367 4.37666 10.6997 4.91552 10.6997H24.5899C25.1347 10.6997 25.5718 11.1367 25.5718 11.6707ZM25.5718 15.561C25.5718 16.095 25.1347 16.532 24.5899 16.532H4.91552C4.37067 16.532 3.93359 16.095 3.93359 15.561C3.93359 15.0269 4.37666 14.5899 4.91552 14.5899H24.5899C25.1347 14.5899 25.5718 15.0269 25.5718 15.561ZM25.5718 19.4512C25.5718 19.9853 25.1347 20.4222 24.5899 20.4222H4.91552C4.37067 20.4222 3.93359 19.9853 3.93359 19.4512C3.93359 18.9171 4.37666 18.4802 4.91552 18.4802H24.5899C25.1347 18.4802 25.5718 18.9171 25.5718 19.4512Z" fill="#99AAB5"/>
<path d="M29.5056 6.09332C28.6914 5.57746 27.6975 5.5289 27.0269 6.07512L26.2485 6.70022L24.7876 7.88368L24.6918 7.96258L22.3568 9.8379L10.6755 19.257C10.2444 19.609 9.89714 20.4405 9.51994 21.2719C9.14872 22.0973 8.56795 24.0515 8.10094 25.5384C7.95724 25.7812 7.05316 27.3349 7.55609 27.9296C8.06501 28.5244 9.84325 27.9418 10.0827 27.8507C11.6814 27.6869 13.753 27.4927 14.6571 27.2863C15.5671 27.08 16.4832 26.91 16.9083 26.558C16.9143 26.5459 16.9203 26.5398 16.9263 26.5398L28.5896 17.1389L29.3679 16.5077L29.5116 16.3985V6.09332H29.5056Z" fill="#66757F"/>
<path d="M16.8664 21.9031C16.8664 21.9031 15.6151 20.0763 14.7828 19.4148C14.1242 18.5954 12.2741 17.3634 12.2741 17.3634C11.8311 16.9265 11.1006 16.8961 10.6695 17.3149C10.2384 17.7397 9.89118 18.644 9.51398 19.5483C9.04697 20.6589 8.25664 23.5842 7.77766 25.1378C7.69383 25.3988 8.28658 24.7009 8.2746 24.9315C8.26263 25.1075 8.29855 25.3078 8.34645 25.4959L8.20276 25.6537L8.40632 25.7144C8.43027 25.7994 8.45422 25.8722 8.47219 25.9207L8.62786 25.7872C8.81346 25.8358 9.01703 25.8661 9.19665 25.854C9.43016 25.8418 8.72365 26.4305 8.99308 26.3516C10.5678 25.8661 13.5255 25.0893 14.6511 24.628C15.5612 24.2578 16.4772 23.9058 16.9023 23.481C17.3334 23.0622 17.3035 22.3461 16.8604 21.9031H16.8664Z" fill="#D99E82"/>
<path d="M23.9132 4.23016C23.0511 5.08589 23.0511 6.45749 23.9132 7.31322L27.0266 10.3963C27.8888 11.2399 29.2839 11.2399 30.1401 10.3963L33.2595 7.31322C34.1216 6.45749 34.1216 5.08589 33.2595 4.23016L30.1401 1.1471C29.2779 0.303506 27.8828 0.303506 27.0266 1.1471L23.9132 4.23016Z" fill="#EA596E"/>
<path d="M10.6694 17.327L13.7888 20.4101L16.9022 23.481L28.5895 11.9317L22.3567 5.77771L10.6694 17.327Z" fill="#FFCC4D"/>
<path d="M10.1307 25.9997C10.1307 25.9997 8.10703 27.1103 7.5562 26.5641C7.00536 26.0179 8.12499 24.0272 8.12499 24.0272C8.12499 24.0272 10.0469 24.0576 10.1248 25.9997H10.1307Z" fill="#292F33"/>
<path d="M22.3569 5.7656L26.2547 1.91785L32.4875 8.08396L28.5897 11.9317L22.3569 5.7656Z" fill="#CCD6DD"/>
<path d="M24.692 3.45936L25.4703 2.6886L31.7031 8.84258L30.9248 9.61334L24.692 3.45936ZM23.1353 4.99482L23.9136 4.22406L30.1464 10.3902L29.3681 11.1609L23.1353 4.99482Z" fill="#99AAB5"/>
</g>
<defs>
<clipPath id="clip0_551_218">
<rect width="33.9062" height="35" fill="white"/>
</clipPath>
</defs>
</svg>
