<svg width="35" height="35" viewBox="0 0 35 35" fill="none" xmlns="http://www.w3.org/2000/svg">
<g clip-path="url(#clip0_551_169)">
<path d="M14.5533 0C16.8072 0 19.4032 1.3438 21.2784 3.17627C23.1598 5.00873 25.0655 7.01832 25.0655 9.04625V25.8805L9.0376 25.911V9.15009C8.94598 7.67801 10.1188 0 14.5533 0Z" fill="#EA596E"/>
<path d="M17.0391 10.9093V27.1754C17.0391 28.2566 17.937 27.1754 19.0487 27.1754V29.1301C20.1542 29.1301 21.0583 28.2505 21.0583 27.1754V11.8439C19.7939 11.74 18.4012 11.5873 17.0452 10.9093H17.0391Z" fill="#DD2E44"/>
<path d="M20.1237 3.15186C22.7991 5.49131 24.4178 8.27665 23.0923 9.70597C21.7729 11.1353 18.0164 10.6772 15.3471 8.33773C12.6778 5.99829 11.5783 2.93808 12.8977 1.50876C14.2171 0.0794379 17.4544 0.812422 20.1237 3.15186Z" fill="#F4ABBA"/>
<path d="M28.0831 33.0454C28.0831 34.1266 27.1852 35.0001 26.0735 35.0001H8.01155C6.90597 35.0001 6.00195 34.1205 6.00195 33.0454V27.1755C6.00195 26.0943 6.89986 25.2208 8.01155 25.2208H26.0735C27.1791 25.2208 28.0831 26.1004 28.0831 27.1755V33.0454Z" fill="#FFCC4D"/>
<path d="M29.0846 33.0453C29.0846 34.1265 28.1867 35 27.075 35H7.0096C5.90401 35 5 34.1204 5 33.0453V32.068C5 30.9869 5.89791 30.1134 7.0096 30.1134H27.0812C28.1867 30.1134 29.0907 30.993 29.0907 32.068V33.0453H29.0846Z" fill="#FFAC33"/>
</g>
<defs>
<clipPath id="clip0_551_169">
<rect width="24.0846" height="35" fill="white" transform="translate(5)"/>
</clipPath>
</defs>
</svg>
