<svg width="528" height="428" viewBox="0 0 528 428" fill="none" xmlns="http://www.w3.org/2000/svg">
<g clip-path="url(#clip0_401_62)">
<rect x="140.498" y="9.17725" width="370.378" height="252.876" rx="16" fill="white"/>
<mask id="mask0_401_62" style="mask-type:alpha" maskUnits="userSpaceOnUse" x="140" y="9" width="371" height="254">
<rect x="140.498" y="9.17725" width="370.378" height="252.876" rx="16" fill="white"/>
</mask>
<g mask="url(#mask0_401_62)">
<circle cx="527.406" cy="4.70955" r="110.906" stroke="black" stroke-opacity="0.02" stroke-width="40"/>
<circle cx="124.413" cy="275.903" r="110.906" stroke="black" stroke-opacity="0.02" stroke-width="40"/>
</g>
<rect x="306.011" y="129.55" width="168.985" height="104.169" rx="8" fill="#E6F4F1"/>
<rect opacity="0.54" x="324.529" y="185.107" width="9.25946" height="33.5655" rx="2" fill="url(#paint0_linear_401_62)"/>
<rect opacity="0.54" x="418.281" y="164.273" width="9.25946" height="54.3993" rx="2" fill="url(#paint1_linear_401_62)"/>
<rect opacity="0.54" x="355.78" y="171.218" width="9.25946" height="47.4547" rx="2" fill="url(#paint2_linear_401_62)"/>
<rect opacity="0.54" x="449.532" y="185.107" width="9.25946" height="33.5655" rx="2" fill="url(#paint3_linear_401_62)"/>
<rect opacity="0.54" x="387.031" y="171.218" width="9.25946" height="47.4547" rx="2" fill="url(#paint4_linear_401_62)"/>
<rect x="316.427" y="141.125" width="18.5189" height="4.62973" rx="1" fill="#D9E4F3"/>
<rect x="348.835" y="141.124" width="18.5189" height="4.62973" rx="1" fill="#D9E4F3"/>
<rect x="381.243" y="141.124" width="18.5189" height="4.62973" rx="1" fill="#D9E4F3"/>
<rect x="413.651" y="141.124" width="18.5189" height="4.62973" rx="1" fill="#D9E4F3"/>
<rect x="446.059" y="141.124" width="18.5189" height="4.62973" rx="1" fill="#D9E4F3"/>
<rect x="329.702" y="56.2454" width="140.049" height="74.0757" rx="8" transform="rotate(-9.71309 329.702 56.2454)" fill="#E6F4F1"/>
<path d="M358.696 115.867C358.696 115.867 369.618 81.8409 381.847 79.6121C394.254 77.3508 398.143 94.708 410.737 94.0423C430.372 93.0044 446.309 48.0285 446.309 48.0285" stroke="#6C95FF" stroke-width="3" stroke-linecap="round"/>
<g filter="url(#filter0_d_401_62)">
<circle cx="380.135" cy="79.9052" r="4.62973" transform="rotate(-9.71309 380.135 79.9052)" fill="white"/>
</g>
<g filter="url(#filter1_d_401_62)">
<circle cx="441.514" cy="61.1791" r="4.62973" transform="rotate(-9.71309 441.514 61.1791)" fill="white"/>
</g>
<rect x="174.063" y="43.9001" width="145.836" height="74.0757" rx="8" fill="#E6F4F1"/>
<path d="M220.361 81.517C223.062 82.0957 228.579 84.2948 229.042 88.4616C229.621 93.67 241.195 97.721 242.353 84.4106C243.51 71.1001 252.174 55.4202 257.399 72.2575C262.608 89.0403 263.765 87.3041 268.395 82.6744C270.71 80.3595 276.15 77.466 279.39 84.4106C284.02 89.9662 285.178 91.5481 286.914 92.5126" stroke="#6C95FF" stroke-width="3" stroke-linecap="round"/>
<g filter="url(#filter2_d_401_62)">
<circle cx="289.807" cy="93.6701" r="3.4723" fill="#E9EAFF"/>
</g>
<rect x="201.841" y="58.947" width="11.5743" height="3.4723" rx="1.5" fill="#D5DEFF"/>
<rect x="201.841" y="69.364" width="11.5743" height="3.4723" rx="1.5" fill="#D5DEFF"/>
<rect x="201.841" y="79.7808" width="11.5743" height="3.4723" rx="1.5" fill="#D5DEFF"/>
<rect x="201.841" y="90.1976" width="11.5743" height="3.4723" rx="1.5" fill="#D5DEFF"/>
<rect x="201.841" y="100.615" width="11.5743" height="3.4723" rx="1.5" fill="#D5DEFF"/>
<path d="M145.193 177.148C144.102 177.812 144.29 178.694 144.52 179.052C144.857 179.674 145.697 180.982 146.357 181.24C146.397 181.256 146.438 181.27 146.478 181.283C147.483 181.604 148.62 181.727 149.506 182.297C150.155 182.715 150.811 182.407 151.058 182.2C151.603 181.818 152.895 180.941 153.709 180.493C154.405 180.11 154.603 179.425 154.624 179.002C154.63 178.876 154.616 178.797 154.578 178.677C154.336 177.898 154.712 176.998 154.879 176.2C155.01 175.571 154.824 174.928 154.644 174.574L153.714 173.131C153.213 172.352 152.276 172.617 151.87 172.847C150.099 174.004 146.284 176.483 145.193 177.148Z" fill="url(#paint5_linear_401_62)"/>
<path d="M135.207 171.521C138.263 172.021 140.464 173.689 141.183 174.461C142.493 176.199 143.827 175.986 144.33 175.662C146.134 174.531 149.821 172.201 150.135 171.923C150.528 171.575 152.086 171.046 151.255 169.018C150.423 166.99 150.829 167.251 150.468 166.249C150.18 165.447 150.583 162.251 150.821 160.752C150.921 160.245 150.899 158.632 150.007 156.245C147.744 151.626 145.764 150.1 141.478 148.825C137.191 147.551 131.51 149.786 129.019 153.953C126.529 158.121 126.942 162.079 127.932 164.575C128.923 167.07 131.415 170.498 135.207 171.521Z" fill="url(#paint6_linear_401_62)"/>
<path d="M144.818 153.319L143.51 154.162L144.645 155.187L145.418 153.882L144.818 153.319Z" fill="white"/>
<path d="M142.822 152.229L141.932 153.506L143.371 154.023L143.591 152.522L142.822 152.229Z" fill="white"/>
<path d="M140.512 152.029L140.117 153.535L141.647 153.523L141.334 152.038L140.512 152.029Z" fill="white"/>
<path d="M138.224 152.905L138.676 154.395L139.973 153.584L138.93 152.482L138.224 152.905Z" fill="white"/>
<path d="M136.483 154.508L137.395 155.77L138.358 154.582L137.014 153.879L136.483 154.508Z" fill="white"/>
<path d="M135.529 156.701L136.897 157.442L137.25 155.954L135.733 155.904L135.529 156.701Z" fill="white"/>
<path d="M135.718 159.084L137.272 159.163L136.949 157.668L135.559 158.277L135.718 159.084Z" fill="white"/>
<path d="M136.576 161.256L138.099 160.933L137.402 159.572L136.215 160.517L136.576 161.256Z" fill="white"/>
<path d="M138.551 162.849L139.769 161.88L138.537 160.973L137.897 162.349L138.551 162.849Z" fill="white"/>
<path d="M140.958 163.318L141.453 161.842L139.926 161.751L140.138 163.253L140.958 163.318Z" fill="white"/>
<path d="M143.291 163.016L143.247 161.46L141.782 161.9L142.498 163.238L143.291 163.016Z" fill="white"/>
<path d="M145.217 161.651L144.571 160.235L143.393 161.211L144.574 162.164L145.217 161.651Z" fill="white"/>
<path d="M146.577 159.709L145.405 158.685L144.734 160.06L146.203 160.442L146.577 159.709Z" fill="white"/>
<path d="M146.883 157.418L145.393 156.968L145.348 158.497L146.843 158.24L146.883 157.418Z" fill="white"/>
<path d="M146.387 155.109L144.848 155.342L145.463 156.742L146.703 155.868L146.387 155.109Z" fill="white"/>
<path fill-rule="evenodd" clip-rule="evenodd" d="M143.735 161.66C145.922 160.252 146.553 157.338 145.145 155.151C143.736 152.964 140.822 152.333 138.635 153.741C136.448 155.15 135.817 158.064 137.226 160.251C138.634 162.438 141.549 163.069 143.735 161.66ZM142.482 159.714C143.594 158.998 143.914 157.516 143.198 156.404C142.482 155.292 141 154.971 139.888 155.687C138.776 156.403 138.456 157.885 139.172 158.997C139.888 160.109 141.37 160.43 142.482 159.714Z" fill="white"/>
<path d="M140.621 163.323L140.023 164.167L140.978 164.517L141.13 163.521L140.621 163.323Z" fill="white"/>
<path d="M139.12 163.147L138.889 164.155L139.904 164.116L139.667 163.137L139.12 163.147Z" fill="white"/>
<path d="M137.645 163.599L137.776 164.625L138.716 164.237L138.155 163.4L137.645 163.599Z" fill="white"/>
<path d="M136.453 164.706L137.102 165.512L137.7 164.69L136.783 164.27L136.453 164.706Z" fill="white"/>
<path d="M135.779 166.126L136.654 166.678L136.953 165.706L135.95 165.607L135.779 166.126Z" fill="white"/>
<path d="M135.736 167.714L136.764 167.831L136.611 166.827L135.664 167.173L135.736 167.714Z" fill="white"/>
<path d="M136.444 169.136L137.422 168.799L136.851 167.958L136.146 168.678L136.444 169.136Z" fill="white"/>
<path d="M137.513 170.262L138.371 169.685L137.604 169.018L137.107 169.896L137.513 170.262Z" fill="white"/>
<path d="M139.125 170.752L139.635 169.853L138.65 169.6L138.598 170.606L139.125 170.752Z" fill="white"/>
<path d="M140.725 170.444L140.664 169.411L139.7 169.734L140.204 170.608L140.725 170.444Z" fill="white"/>
<path d="M142.087 169.678L141.674 168.73L140.88 169.366L141.654 170.012L142.087 169.678Z" fill="white"/>
<path d="M142.935 168.359L142.186 167.647L141.702 168.541L142.666 168.835L142.935 168.359Z" fill="white"/>
<path d="M143.292 166.824L142.315 166.484L142.243 167.498L143.243 167.369L143.292 166.824Z" fill="white"/>
<path d="M142.911 165.337L141.881 165.429L142.233 166.383L143.09 165.853L142.911 165.337Z" fill="white"/>
<path d="M142.031 164.037L141.141 164.563L141.868 165.273L142.415 164.426L142.031 164.037Z" fill="white"/>
<path fill-rule="evenodd" clip-rule="evenodd" d="M142.023 168.733C143.021 167.322 142.686 165.369 141.275 164.371C139.864 163.374 137.912 163.709 136.914 165.12C135.916 166.53 136.251 168.483 137.662 169.481C139.073 170.479 141.026 170.144 142.023 168.733ZM140.768 167.845C141.275 167.127 141.105 166.135 140.387 165.627C139.67 165.12 138.677 165.29 138.17 166.008C137.662 166.725 137.833 167.718 138.55 168.225C139.267 168.733 140.26 168.562 140.768 167.845Z" fill="white"/>
<path d="M134.579 159.636L134.121 160.283L134.852 160.551L134.969 159.787L134.579 159.636Z" fill="white"/>
<path d="M133.428 159.501L133.251 160.273L134.029 160.243L133.847 159.493L133.428 159.501Z" fill="white"/>
<path d="M132.299 159.847L132.399 160.633L133.119 160.336L132.689 159.694L132.299 159.847Z" fill="white"/>
<path d="M131.386 160.695L131.883 161.312L132.341 160.683L131.639 160.361L131.386 160.695Z" fill="white"/>
<path d="M130.87 161.783L131.54 162.206L131.769 161.461L131 161.385L130.87 161.783Z" fill="white"/>
<path d="M130.837 163L131.624 163.09L131.507 162.32L130.782 162.585L130.837 163Z" fill="white"/>
<path d="M131.379 164.089L132.128 163.831L131.691 163.187L131.15 163.738L131.379 164.089Z" fill="white"/>
<path d="M132.198 164.952L132.855 164.509L132.267 163.999L131.887 164.671L132.198 164.952Z" fill="white"/>
<path d="M133.433 165.328L133.823 164.638L133.069 164.444L133.029 165.216L133.433 165.328Z" fill="white"/>
<path d="M134.659 165.091L134.612 164.3L133.874 164.547L134.26 165.217L134.659 165.091Z" fill="white"/>
<path d="M135.702 164.505L135.386 163.778L134.778 164.265L135.371 164.76L135.702 164.505Z" fill="white"/>
<path d="M136.352 163.494L135.777 162.948L135.407 163.633L136.146 163.858L136.352 163.494Z" fill="white"/>
<path d="M136.626 162.318L135.878 162.057L135.823 162.834L136.589 162.735L136.626 162.318Z" fill="white"/>
<path d="M136.333 161.178L135.544 161.249L135.814 161.98L136.471 161.574L136.333 161.178Z" fill="white"/>
<path d="M135.66 160.183L134.978 160.585L135.535 161.129L135.954 160.481L135.66 160.183Z" fill="white"/>
<path fill-rule="evenodd" clip-rule="evenodd" d="M135.654 163.78C136.419 162.699 136.162 161.203 135.081 160.439C134 159.674 132.504 159.931 131.74 161.012C130.975 162.093 131.232 163.589 132.313 164.353C133.394 165.118 134.89 164.861 135.654 163.78ZM134.692 163.1C135.081 162.55 134.951 161.789 134.401 161.401C133.851 161.012 133.091 161.142 132.702 161.692C132.313 162.242 132.444 163.002 132.993 163.391C133.543 163.78 134.304 163.649 134.692 163.1Z" fill="white"/>
<path d="M137.329 141.996C137.216 139.189 139.239 134.122 141.456 129.896" stroke="#FFC2A4" stroke-width="2" stroke-linecap="round"/>
<path d="M116.374 181.184C118.123 178.986 122.967 176.476 127.408 174.727" stroke="#FFC2A4" stroke-width="2" stroke-linecap="round"/>
<path d="M124.777 146.956C122.243 145.744 118.709 141.587 116.009 137.652" stroke="#FFC2A4" stroke-width="2" stroke-linecap="round"/>
<path d="M156.723 164.583C159.436 163.859 164.824 164.724 169.433 165.961" stroke="#FFC2A4" stroke-width="2" stroke-linecap="round"/>
<path d="M119.536 155.984C116.744 156.289 111.55 154.619 107.181 152.699" stroke="#FFC2A4" stroke-width="2" stroke-linecap="round"/>
<path d="M157.998 155.159C160.075 153.268 165.257 151.561 169.92 150.542" stroke="#FFC2A4" stroke-width="2" stroke-linecap="round"/>
<path d="M120.831 166.57C118.305 167.797 112.851 167.97 108.091 167.63" stroke="#FFC2A4" stroke-width="2" stroke-linecap="round"/>
<path d="M149.995 146.391C151.158 143.834 155.247 140.221 159.13 137.446" stroke="#FFC2A4" stroke-width="2" stroke-linecap="round"/>
<path d="M121.265 53.7337C120.117 51.7693 121.467 49.9175 122.285 49.2372C126.909 44.6982 136.649 35.0588 138.613 32.8137C140.577 30.5686 142.387 30.794 143.046 31.1873C144.045 30.1243 146.05 28.0365 146.075 28.1896C146.101 28.3427 147.425 29.6141 148.084 30.2306C147.532 30.8153 146.177 32.2142 145.182 33.1326C145.744 35.1991 144.587 36.6299 143.939 37.087C138.9 42.1895 128.459 52.7133 127.005 53.9889C125.666 55.8066 122.7 56.1893 121.265 53.7337Z" fill="#23649A"/>
<path d="M154.144 5.92978C156.812 5.05811 163.456 4.46283 168.686 9.05503C166.581 6.66325 162.084 2.19862 154.144 5.92978Z" fill="#23649A"/>
<path d="M152.345 27.4497C154.592 28.5595 160.419 30.2006 165.748 27.8873C163.524 29.2056 158.866 31.5624 152.345 27.4497Z" fill="#23649A"/>
<circle cx="159.565" cy="16.5815" r="15.3825" stroke="#23649A" stroke-width="2"/>
<rect x="318.289" y="2" width="9.11447" height="7.28015" transform="rotate(56.3598 318.289 2)" fill="#30215A"/>
<rect x="339.014" y="253.395" width="13.8777" height="12.2456" rx="2" transform="rotate(42.8614 339.014 253.395)" fill="#30215A"/>
<path d="M520.811 163.46C512.241 166.765 505.042 162.47 502.514 159.909C506.792 168.557 500.57 176.039 499.797 177.561C506.532 174.856 514.322 178.933 517.375 181.31C514.121 170.535 518.044 167.911 520.811 163.46Z" fill="#F27559"/>
<path d="M149.158 81.5158C141.86 84.3294 135.73 80.6721 133.578 78.4917C137.22 85.856 131.923 92.2267 131.264 93.5225C136.999 91.219 143.632 94.6909 146.232 96.7147C143.461 87.5398 146.802 85.3052 149.158 81.5158Z" fill="#F27559"/>
<rect x="174.063" y="129.55" width="115.743" height="104.169" rx="8" fill="#E6F4F1"/>
<path d="M174.063 137.55C174.063 133.132 177.645 129.55 182.063 129.55H281.807C286.225 129.55 289.807 133.132 289.807 137.55V144.893H174.063V137.55Z" fill="#D6E4FF"/>
<ellipse cx="180.051" cy="137.222" rx="1.99557" ry="2.01878" fill="white"/>
<ellipse cx="185.639" cy="137.221" rx="1.99557" ry="2.01878" fill="white"/>
<ellipse cx="191.226" cy="137.221" rx="1.99557" ry="2.01878" fill="white"/>
<path d="M257.206 185.946C255.886 191.705 252.683 196.845 248.115 200.533C243.547 204.22 237.883 206.239 232.039 206.263C226.195 206.287 220.514 204.314 215.917 200.664C211.32 197.014 208.076 191.901 206.71 186.153L231.934 180.019L257.206 185.946Z" fill="#F27559"/>
<path d="M232.732 152.16C236.567 152.16 240.354 153.02 243.821 154.679C247.288 156.337 250.348 158.753 252.782 161.751C255.215 164.749 256.962 168.257 257.895 172.02C258.828 175.783 258.924 179.708 258.178 183.514L232.732 178.404L232.732 152.16Z" fill="#51C0A6"/>
<path d="M206.36 182.811C205.733 179.088 205.908 175.271 206.872 171.622C207.837 167.974 209.569 164.578 211.95 161.669C214.331 158.759 217.305 156.404 220.668 154.764C224.032 153.124 227.705 152.237 231.438 152.165L231.934 178.404L206.36 182.811Z" fill="#86B2F3"/>
<rect x="198.01" y="211.109" width="67.8495" height="3.23004" fill="#CED5E7"/>
<rect x="210.781" y="218.376" width="42.3061" height="3.23004" fill="#CED5E7"/>
<path d="M185.594 231.621C182.766 241.167 177.934 245.027 175.871 245.764L183.827 261.232C186.626 256.517 192.754 246.47 194.876 243.995C197.528 240.901 204.157 238.249 207.693 236.04C211.229 233.83 212.996 229.852 207.693 231.178C203.45 232.239 203.862 230.147 204.599 228.968C205.336 226.758 207.693 220.924 211.229 215.267C214.764 209.61 212.113 211.142 210.345 212.615L202.831 220.129C203.715 219.097 205.837 215.798 207.251 210.848C208.665 205.898 205.778 208.785 204.157 210.848C202.831 212.173 199.295 217.477 197.086 221.455C198.853 217.565 200.179 213.353 200.621 211.732C201.505 208.639 199.078 210.237 197.528 212.174C195.76 214.384 193.55 218.951 192.224 221.898C192.813 220.424 194.08 217.036 194.434 215.268C194.876 213.058 194.876 212.616 193.108 214.384C189.572 217.478 189.13 219.688 185.594 231.621Z" fill="#FFC7C7"/>
<path d="M28.6968 369.957L19.8574 598.455L48.5854 600.664L72.4517 421.667L84.3849 600.664H109.577L111.787 369.957H28.6968Z" fill="black"/>
<path d="M113.554 282.005V242.228L154.657 266.978L180.733 237.808C183.385 239.429 190.014 243.554 195.318 247.09C177.197 283.331 166.148 292.171 164.38 293.496C162.612 294.822 161.286 295.706 156.425 295.264C138.746 294.911 120.478 286.278 113.554 282.005Z" fill="#2B2B2B"/>
<path d="M51.6777 231.178L53.8876 217.477L76.87 218.803L79.5218 229.853L69.3565 243.996L51.6777 231.178Z" fill="#FFC7C7"/>
<path d="M55.0532 230.415C51.3208 231.349 45.1942 233.535 41.9531 234.714L53.8863 377.912H91.4537L87.4759 231.62L77.7526 229.41L68.9132 240.901C65.3775 238.544 57.1747 232.89 55.0532 230.415Z" fill="white"/>
<path d="M115.355 243.069C103.687 235.644 90.4242 232.063 85.2679 231.179L82.6161 265.653V275.376L85.7099 398.685L115.322 402.663C115.322 350.953 115.355 246.605 115.355 243.069Z" fill="#2B2B2B"/>
<path d="M16.7627 247.974C25.2485 240.902 40.629 235.009 47.2586 232.947L57.8658 269.63L60.5176 398.685L22.0663 402.663L16.7627 247.974Z" fill="#2B2B2B"/>
<path fill-rule="evenodd" clip-rule="evenodd" d="M55.0541 205.404L66.2516 212.741V220.509L52.0898 206.492L55.0541 205.404Z" fill="white"/>
<path fill-rule="evenodd" clip-rule="evenodd" d="M66.252 212.741L64.3857 297.913L72.7179 309.672L80.8405 297.926L71.3557 212.309L66.252 212.741Z" fill="#14DDB9"/>
<path d="M78.6377 227.201C60.6054 229.322 53.4455 220.424 52.5615 216.152L78.6705 218.318L78.6377 227.201Z" fill="#F3B1B1"/>
<path d="M78.6383 222.782C56.7166 225.611 46.2272 214.532 43.7227 208.639C35.3253 169.304 75.5445 159.58 83.4999 170.188C91.4554 180.795 90.9808 195.866 88.8035 202.893C86.6263 209.921 87.9196 216.594 78.6383 222.782Z" fill="#FFC7C7"/>
<path d="M59.1911 157.811C47.1696 161.7 40.0392 167.387 37.9766 169.744C33.0266 172.573 31.7891 181.825 31.7891 186.097C32.673 190.075 33.115 201.566 41.9544 211.731C48.6826 219.469 49.3205 213.646 48.5839 209.963C48.1419 208.343 47.0812 203.687 46.374 198.03C45.9321 190.959 52.5616 192.727 53.0036 198.03C53.4455 203.334 55.6554 201.124 56.5393 198.914C57.2465 197.146 57.7179 191.695 57.8652 189.191C59.6331 175.401 73.3342 180.401 85.7093 182.119C101.62 184.329 97.2005 174.606 91.4549 164.883C87.0352 156.485 77.9012 156.043 73.3342 156.043C71.2716 155.896 65.5555 156.043 59.1911 157.811Z" fill="#2B2B2B"/>
<path d="M40.1863 270.513C41.9542 245.056 26.0433 243.11 16.762 247.973C11.0163 255.487 3.94485 277.142 1.735 294.821C-0.474843 312.499 -1.35878 324.433 3.94485 338.576C8.18775 349.89 19.2664 369.808 24.2754 378.353L39.7443 367.304L26.0433 326.201C29.9326 311.35 37.0925 282.888 40.1863 270.513Z" fill="#2B2B2B"/>
</g>
<defs>
<filter id="filter0_d_401_62" x="367.505" y="69.2747" width="25.2612" height="25.261" filterUnits="userSpaceOnUse" color-interpolation-filters="sRGB">
<feFlood flood-opacity="0" result="BackgroundImageFix"/>
<feColorMatrix in="SourceAlpha" type="matrix" values="0 0 0 0 0 0 0 0 0 0 0 0 0 0 0 0 0 0 127 0" result="hardAlpha"/>
<feOffset dy="2"/>
<feGaussianBlur stdDeviation="4"/>
<feComposite in2="hardAlpha" operator="out"/>
<feColorMatrix type="matrix" values="0 0 0 0 0.201043 0 0 0 0 0.167438 0 0 0 0 0.5875 0 0 0 0.12 0"/>
<feBlend mode="normal" in2="BackgroundImageFix" result="effect1_dropShadow_401_62"/>
<feBlend mode="normal" in="SourceGraphic" in2="effect1_dropShadow_401_62" result="shape"/>
</filter>
<filter id="filter1_d_401_62" x="428.884" y="50.5486" width="25.2612" height="25.261" filterUnits="userSpaceOnUse" color-interpolation-filters="sRGB">
<feFlood flood-opacity="0" result="BackgroundImageFix"/>
<feColorMatrix in="SourceAlpha" type="matrix" values="0 0 0 0 0 0 0 0 0 0 0 0 0 0 0 0 0 0 127 0" result="hardAlpha"/>
<feOffset dy="2"/>
<feGaussianBlur stdDeviation="4"/>
<feComposite in2="hardAlpha" operator="out"/>
<feColorMatrix type="matrix" values="0 0 0 0 0.201043 0 0 0 0 0.167438 0 0 0 0 0.5875 0 0 0 0.12 0"/>
<feBlend mode="normal" in2="BackgroundImageFix" result="effect1_dropShadow_401_62"/>
<feBlend mode="normal" in="SourceGraphic" in2="effect1_dropShadow_401_62" result="shape"/>
</filter>
<filter id="filter2_d_401_62" x="282.335" y="88.1978" width="14.9443" height="14.9446" filterUnits="userSpaceOnUse" color-interpolation-filters="sRGB">
<feFlood flood-opacity="0" result="BackgroundImageFix"/>
<feColorMatrix in="SourceAlpha" type="matrix" values="0 0 0 0 0 0 0 0 0 0 0 0 0 0 0 0 0 0 127 0" result="hardAlpha"/>
<feOffset dy="2"/>
<feGaussianBlur stdDeviation="2"/>
<feComposite in2="hardAlpha" operator="out"/>
<feColorMatrix type="matrix" values="0 0 0 0 0.443137 0 0 0 0 0.517647 0 0 0 0 0.819608 0 0 0 0.16 0"/>
<feBlend mode="normal" in2="BackgroundImageFix" result="effect1_dropShadow_401_62"/>
<feBlend mode="normal" in="SourceGraphic" in2="effect1_dropShadow_401_62" result="shape"/>
</filter>
<linearGradient id="paint0_linear_401_62" x1="329.159" y1="185.107" x2="329.159" y2="218.672" gradientUnits="userSpaceOnUse">
<stop stop-color="#00A3FE"/>
<stop offset="1" stop-color="#0047FE"/>
</linearGradient>
<linearGradient id="paint1_linear_401_62" x1="422.911" y1="164.273" x2="422.911" y2="218.672" gradientUnits="userSpaceOnUse">
<stop stop-color="#00A3FE"/>
<stop offset="1" stop-color="#0047FE"/>
</linearGradient>
<linearGradient id="paint2_linear_401_62" x1="360.41" y1="171.218" x2="360.41" y2="218.672" gradientUnits="userSpaceOnUse">
<stop stop-color="#00A3FE"/>
<stop offset="1" stop-color="#0047FE"/>
</linearGradient>
<linearGradient id="paint3_linear_401_62" x1="454.162" y1="185.107" x2="454.162" y2="218.672" gradientUnits="userSpaceOnUse">
<stop stop-color="#00A3FE"/>
<stop offset="1" stop-color="#0047FE"/>
</linearGradient>
<linearGradient id="paint4_linear_401_62" x1="391.661" y1="171.218" x2="391.661" y2="218.672" gradientUnits="userSpaceOnUse">
<stop stop-color="#00A3FE"/>
<stop offset="1" stop-color="#0047FE"/>
</linearGradient>
<linearGradient id="paint5_linear_401_62" x1="148.436" y1="175.057" x2="152.461" y2="181.306" gradientUnits="userSpaceOnUse">
<stop stop-color="#50AF9A"/>
<stop offset="1" stop-color="#349B44"/>
</linearGradient>
<linearGradient id="paint6_linear_401_62" x1="132.511" y1="150.419" x2="147.486" y2="173.671" gradientUnits="userSpaceOnUse">
<stop stop-color="#FBE0B3"/>
<stop offset="1" stop-color="#FFCB6A"/>
</linearGradient>
<clipPath id="clip0_401_62">
<rect width="528" height="428" fill="white"/>
</clipPath>
</defs>
</svg>
