<svg width="50" height="50" viewBox="0 0 50 50" fill="none" xmlns="http://www.w3.org/2000/svg">
<circle cx="25" cy="25" r="24.75" fill="white" stroke="#ACACAC" stroke-width="0.5"/>
<mask id="mask0_511_687" style="mask-type:luminance" maskUnits="userSpaceOnUse" x="12" y="12" width="25" height="26">
<path d="M36.5557 22.7078H24.8082V27.5787H31.5702C30.9398 30.6732 28.3038 32.4496 24.8082 32.4496C20.6823 32.4496 17.3586 29.1259 17.3586 25C17.3586 20.8741 20.6823 17.5504 24.8082 17.5504C26.5847 17.5504 28.1892 18.1807 29.4499 19.2122L33.1174 15.5447C30.8825 13.5963 28.0173 12.3929 24.8082 12.3929C17.817 12.3929 12.2012 18.0088 12.2012 25C12.2012 31.9912 17.817 37.6071 24.8082 37.6071C31.1118 37.6071 36.8422 33.0227 36.8422 25C36.8422 24.255 36.7276 23.4528 36.5557 22.7078Z" fill="white"/>
</mask>
<g mask="url(#mask0_511_687)">
<path d="M11.0549 32.4497V17.5504L20.7967 25L11.0549 32.4497Z" fill="#FBBC05"/>
</g>
<mask id="mask1_511_687" style="mask-type:luminance" maskUnits="userSpaceOnUse" x="12" y="12" width="25" height="26">
<path d="M36.5557 22.7078H24.8082V27.5787H31.5702C30.9398 30.6732 28.3038 32.4496 24.8082 32.4496C20.6823 32.4496 17.3586 29.1259 17.3586 25C17.3586 20.8741 20.6823 17.5504 24.8082 17.5504C26.5847 17.5504 28.1892 18.1807 29.4499 19.2122L33.1174 15.5447C30.8825 13.5963 28.0173 12.3929 24.8082 12.3929C17.817 12.3929 12.2012 18.0088 12.2012 25C12.2012 31.9912 17.817 37.6071 24.8082 37.6071C31.1118 37.6071 36.8422 33.0227 36.8422 25C36.8422 24.255 36.7276 23.4528 36.5557 22.7078Z" fill="white"/>
</mask>
<g mask="url(#mask1_511_687)">
<path d="M11.0549 17.5506L20.7967 25.0002L24.8081 21.5046L38.5612 19.2697V11.2471H11.0549V17.5506Z" fill="#EA4335"/>
</g>
<mask id="mask2_511_687" style="mask-type:luminance" maskUnits="userSpaceOnUse" x="12" y="12" width="25" height="26">
<path d="M36.5557 22.7078H24.8082V27.5787H31.5702C30.9398 30.6732 28.3038 32.4496 24.8082 32.4496C20.6823 32.4496 17.3586 29.1259 17.3586 25C17.3586 20.8741 20.6823 17.5504 24.8082 17.5504C26.5847 17.5504 28.1892 18.1807 29.4499 19.2122L33.1174 15.5447C30.8825 13.5963 28.0173 12.3929 24.8082 12.3929C17.817 12.3929 12.2012 18.0088 12.2012 25C12.2012 31.9912 17.817 37.6071 24.8082 37.6071C31.1118 37.6071 36.8422 33.0227 36.8422 25C36.8422 24.255 36.7276 23.4528 36.5557 22.7078Z" fill="white"/>
</mask>
<g mask="url(#mask2_511_687)">
<path d="M11.0549 32.4498L28.2464 19.2697L32.7734 19.8428L38.5612 11.2471V38.7534H11.0549V32.4498Z" fill="#34A853"/>
</g>
<mask id="mask3_511_687" style="mask-type:luminance" maskUnits="userSpaceOnUse" x="12" y="12" width="25" height="26">
<path d="M36.5557 22.7078H24.8082V27.5787H31.5702C30.9398 30.6732 28.3038 32.4496 24.8082 32.4496C20.6823 32.4496 17.3586 29.1259 17.3586 25C17.3586 20.8741 20.6823 17.5504 24.8082 17.5504C26.5847 17.5504 28.1892 18.1807 29.4499 19.2122L33.1174 15.5447C30.8825 13.5963 28.0173 12.3929 24.8082 12.3929C17.817 12.3929 12.2012 18.0088 12.2012 25C12.2012 31.9912 17.817 37.6071 24.8082 37.6071C31.1118 37.6071 36.8422 33.0227 36.8422 25C36.8422 24.255 36.7276 23.4528 36.5557 22.7078Z" fill="white"/>
</mask>
<g mask="url(#mask3_511_687)">
<path d="M38.5616 38.7532L20.7971 25L18.5049 23.2809L38.5616 17.5504V38.7532Z" fill="#4285F4"/>
</g>
</svg>
